<svg xmlns="http://www.w3.org/2000/svg" height="512" width="512" xmlns:v="https://vecta.io/nano"><linearGradient id="A" x1="100%" x2="50%" y1="5.663%" y2="50%"><stop offset="0" stop-color="#007b55"/><stop offset="1" stop-color="#00ab55"/></linearGradient><linearGradient id="B" x1="50%" x2="50%" y1="0%" y2="100%"><stop offset="0" stop-color="#5be584"/><stop offset="1" stop-color="#00ab55"/></linearGradient><g fill-rule="evenodd" transform="translate(14 128)"><path d="M92.807 83.107l46.401 23.98c.012.009.642.333 44.793 23.153-26.072 48.54-42.693 77.266-49.868 86.179-10.759 13.37-22.495 23.493-36.93 29.334-30.346 14.262-68.07 14.929-97.202-2.704z" fill="url(#A)"/><g fill="url(#B)"><path d="M430.31 101.726C384.04 20.77 336.21-55.502 281.267 56.382 273.751 70.766 268.272 98.719 256 98.719v-.142c-12.272 0-17.749-27.953-25.265-42.337C175.79-55.644 127.96 20.628 81.69 101.584L72 118.58c106.038-67.127 97.11 135.666 184 137.278V256c86.891-1.611 77.962-204.405 184-137.28l-9.69-16.994"/><path d="M436 256c26.509 0 48-21.491 48-48s-21.491-48-48-48-48 21.491-48 48 21.491 48 48 48"/></g></g></svg>