<svg xmlns="http://www.w3.org/2000/svg" viewBox="0 0 1024 1024" fill="currentColor" overflow="hidden" xmlns:v="https://vecta.io/nano"><path d="M916.637 226.501c-18.72-15.897-43.72-23.844-75.003-23.844H175.411c-30.778 0-54.62 8.844-71.549 26.543-16.919 17.695-25.382 40.389-25.382 68.08v436.203c0 12.814 2.562 24.869 7.694 36.15 5.127 11.281 12.056 21.161 20.775 29.619 8.71 8.464 18.975 15.252 30.767 20.395 11.795 5.123 24.358 7.695 37.694 7.695h670.83c13.335 0 26.028-2.693 38.082-8.087 12.05-5.375 22.568-12.688 31.544-21.919 8.959-9.226 16.013-20 21.154-32.312 5.131-12.314 7.697-25.388 7.697-39.24V298.819c.002-32.316-9.37-56.421-28.08-72.318zM628.142 443.909c5.382-4.353 11.92-6.537 19.613-6.537h156.172c7.695 0 14.363 2.173 20.002 6.537 5.645 4.362 8.464 10.128 8.464 17.306s-2.819 13.335-8.464 18.468c-5.638 5.132-12.306 7.694-20.002 7.694H647.755c-7.692 0-14.228-2.562-19.613-7.694s-8.08-11.286-8.08-18.468c0-7.173 2.694-12.943 8.08-17.306zM258.11 395.451c3.846-8.97 9.096-16.667 15.767-23.079s14.366-11.416 23.085-15.005 17.951-5.386 27.694-5.386c21.541 0 39.229 6.8 53.08 20.39 13.844 13.582 20.772 30.899 20.772 51.928 0 10.255-1.923 19.75-5.767 28.469-3.85 8.715-8.981 16.408-15.387 23.079-6.42 6.667-14.109 11.927-23.085 15.772s-18.845 5.77-29.612 5.77c-9.742 0-18.974-1.923-27.694-5.77-8.726-3.847-16.419-9.106-23.085-15.772s-11.922-14.363-15.767-23.079c-3.854-8.725-5.772-18.215-5.772-28.469s1.922-19.871 5.771-28.848zM445.43 618.16v3.077 69.24H205.413v-69.24-3.088c0-19.996 6.929-37.05 20.772-51.146 13.846-14.109 30.769-21.162 50.773-21.162h96.16c9.748 0 19.102 1.921 28.078 5.768s16.668 8.972 23.085 15.394c6.417 6.409 11.538 14.098 15.384 23.078s5.766 18.336 5.765 28.079h0zm100.775-78.471c4.615-5.137 12.055-7.696 22.308-7.696h235.413c10.256 0 17.56 2.559 21.922 7.696 4.364 5.132 6.543 11.544 6.543 19.234 0 7.175-2.307 13.327-6.925 18.46-4.612 5.134-12.049 7.692-22.304 7.692H567.755c-10.265 0-17.569-2.558-21.927-7.692-4.364-5.13-6.543-11.279-6.543-18.46 0-7.69 2.31-14.103 6.92-19.234zm278.88 136.938c-4.869 5.129-12.437 7.698-22.692 7.698H570.057c-9.744 0-17.178-2.568-22.31-7.698-5.138-5.12-7.694-11.277-7.694-18.46s2.556-13.463 7.694-18.845c5.132-5.392 12.826-8.087 23.085-8.087h229.251c10.249 0 18.205 2.693 23.854 8.087 5.638 5.383 8.463 11.661 8.463 18.845.001 7.174-2.439 13.327-7.315 18.46z"/></svg>