<svg xmlns="http://www.w3.org/2000/svg" viewBox="0 0 1024 1024" fill="currentColor" overflow="hidden" xmlns:v="https://vecta.io/nano"><path d="M128.778 37.217h0 0zm790.906 406.645h-40.832c-18.688 0-38.449-14.523-44.042-32.439l-23.394-56.781c-8.749-16.489-5.238-40.713 7.976-53.986l28.929-28.868c13.272-13.272 13.272-34.938 0-48.093l-48.036-47.975c-13.272-13.212-34.876-13.212-48.092 0l-28.926 28.808c-13.211 13.214-37.496 16.846-53.985 7.977l-56.842-23.392c-17.738-5.536-32.441-25.355-32.441-43.985v-40.832c0-18.63-15.295-33.986-33.925-33.986h-67.912c-18.692 0-33.989 15.355-33.989 33.986v40.833c0 18.63-14.523 38.509-32.439 44.105l-56.841 23.272c-16.489 8.809-40.713 5.238-53.927-7.977l-28.985-28.926c-13.152-13.215-34.76-13.215-47.975 0l-48.03 47.973c-13.275 13.274-13.275 34.94 0 48.093l28.865 28.868c13.215 13.272 16.783 37.499 7.977 53.985l-23.392 56.901c-5.595 17.916-25.417 32.439-44.044 32.439h-40.713c-18.808 0-34.106 15.297-34.106 34.046V545.7c0 18.752 15.297 33.989 34.046 33.989h40.772c18.628.118 38.391 14.641 43.985 32.557l23.452 56.841c8.749 16.489 5.238 40.833-7.977 53.926l-28.928 28.87c-13.212 13.332-13.212 34.937 0 48.092l48.093 48.034c13.214 13.271 34.823 13.271 47.975 0l28.985-28.87c13.097-13.211 37.381-16.784 53.749-7.917l57.02 23.392c17.916 5.537 32.439 25.358 32.439 44.045v40.597c0 18.626 15.297 33.983 33.989 33.983h67.912c18.569 0 33.925-15.357 33.925-33.983V878.66c0-18.687 14.703-38.509 32.441-44.045l56.899-23.392c16.488-8.867 40.832-5.294 54.046 7.917l28.748 28.87c13.273 13.271 34.878 13.271 48.094 0l48.031-48.034c13.272-13.274 13.272-34.821 0-48.092l-28.928-28.87c-13.211-13.093-16.783-37.438-7.974-53.926l23.39-56.841c5.595-17.916 25.416-32.439 44.048-32.439h40.771c18.572 0 33.866-15.297 33.866-33.987v-67.913c.121-18.749-15.176-34.046-33.748-34.046m-237.722 67.913c0 93.865-75.95 169.752-169.695 169.752-93.921 0-169.871-75.887-169.871-169.752 0-93.744 76.008-169.752 169.871-169.752 93.744 0 169.695 76.008 169.695 169.752"/></svg>