<svg xmlns="http://www.w3.org/2000/svg" width="24" height="24" fill="none" xmlns:v="https://vecta.io/nano"><path d="M20.96 6.051c-.05.988-.989 1.359-1.718.69l-1.2-1.138-4.691 4.314c-.518.481-1.359.427-1.811-.116h0L8.832 6.651c-1.081.794-3.022 2.307-4.948 4.233a1.25 1.25 0 1 1-1.768-1.768c1.89-1.89 3.963-3.662 6.186-5.153l.003-.002a1.25 1.25 0 0 1 1.578.156c.968.968 1.843 2.033 2.728 3.076l3.662-3.361-1.014-1.072c-.669-.729-.298-1.669.691-1.719 1.261-.063 2.555-.101 3.801.132a1.32 1.32 0 0 1 1.077 1.077c.233 1.246.196 2.54.132 3.801z" fill="#637381"/><g opacity=".4" fill="#637381"><path d="M2.609 22.984c-.837-.021-1.47-.524-1.539-1.358L1 19.5l.071-2.126c.068-.834.702-1.337 1.539-1.358L4 16l1.391.016c.837.021 1.47.524 1.539 1.358L7 19.5l-.071 2.126c-.068.834-.702 1.337-1.539 1.358L4 23a55.07 55.07 0 0 1-1.391-.016zm16.237-.005c-.975-.038-1.658-.723-1.721-1.697L17 16l.124-5.282c.063-.973.747-1.658 1.721-1.697L20 9l1.154.021c.975.038 1.658.724 1.721 1.697L23 16l-.124 5.282c-.063.973-.747 1.659-1.721 1.697L20 23a28.7 28.7 0 0 1-1.154-.021zm-8.069.004c-.934-.028-1.615-.641-1.682-1.573L9 18l.095-3.41c.067-.932.748-1.545 1.682-1.573L12 13l1.223.017c.934.028 1.615.641 1.682 1.573L15 18l-.095 3.41c-.067.932-.748 1.545-1.682 1.573L12 23c-.484 0-.888-.007-1.223-.017z"/></g></svg>