<svg xmlns="http://www.w3.org/2000/svg" width="24" height="24" fill="#637381" xmlns:v="https://vecta.io/nano"><path opacity=".4" d="M16.984 2H7C4.254 2 2 4.254 2 7.016V17c0 2.746 2.254 5 5 5h9.984A5.03 5.03 0 0 0 22 16.984V7.016A5.03 5.03 0 0 0 16.984 2z"/><path fill-rule="evenodd" d="M14.254 18.191c2.175 0 3.952-1.746 3.968-3.905v-3.159l-.032-.159-.111-.222-.175-.143c-.104-.076-.385-.083-.695-.09-.397-.009-.841-.019-1.02-.18-.207-.192-.249-.522-.305-.963l-.013-.1c-.093-.81-.175-.976-.283-1.194l-.066-.139c-.54-1.159-2.032-2.127-3.048-2.127H9.714C7.54 5.81 5.81 7.54 5.81 9.698v4.603c0 2.159 1.73 3.889 3.905 3.889h4.54zM9.762 8.984h2.191c.429 0 .762.302.762.714s-.349.714-.762.714h-2.19c-.413 0-.762-.302-.762-.714s.349-.714.762-.714zm0 4.444h4.46c.413 0 .746.381.746.794s-.333.794-.746.794h-4.46c-.429 0-.762-.381-.762-.794s.349-.794.762-.794z"/></svg>