<svg xmlns="http://www.w3.org/2000/svg" viewBox="0 0 1024 1024" fill="currentColor" overflow="hidden" xmlns:v="https://vecta.io/nano"><path d="M920.643 1.684H336.867c-48.09 0-87.327 39.429-87.327 87.739v88.217H103.596c-48.329 0-87.566 39.419-87.566 87.978v410.318c0 48.559 39.237 87.978 87.566 87.978h29.428v229.319a28.902 28.902 0 0 0 18.422 27.16c3.589 1.436 7.178 2.163 10.766 2.163a29.284 29.284 0 0 0 21.293-9.13l235.185-249.751h268.202c23.686 0 44.74-10.336 60.77-26.203l93.069 98.553c5.742 6.01 13.398 9.139 21.293 9.139 3.589 0 7.178-.727 10.766-2.163a29.265 29.265 0 0 0 18.422-27.169V587.719h29.428c48.09 0 87.327-39.429 87.327-87.739V89.423c-.239-48.319-39.237-87.739-87.327-87.739zm-233.75 703.335H405.054c-9.809 0-18.183 5.292-23.447 12.738l-190.206 201.68V735.548c0-.239-.239-.479-.239-.718s.239-.479.239-.727c0-16.097-13.159-29.323-29.189-29.323h-58.617c-16.03 0-29.189-13.216-29.189-29.323V265.618c0-16.106 13.159-29.332 29.189-29.332H249.54v263.943c0 48.31 39.237 87.729 87.327 87.729h269.877l101.443 107.453c-5.503 5.761-12.92 9.608-21.293 9.608zm262.699-204.8c0 16.106-12.92 29.093-28.95 29.093h-58.617c-16.03 0-29.189 13.207-29.189 29.323v183.889L640.479 538.442l-.239-.239c-1.914-1.924-4.067-3.129-6.46-4.565-.957-.727-1.914-1.684-3.11-1.924-.957-.479-1.914-.239-2.871-.727a24.758 24.758 0 0 0-8.374-1.684H336.867a28.969 28.969 0 0 1-28.95-29.084V89.423c0-16.106 12.92-29.093 28.95-29.093h583.776a28.969 28.969 0 0 1 28.95 29.093v410.796z" fill="#2e323f"/></svg>