<svg xmlns="http://www.w3.org/2000/svg" viewBox="0 0 1024 1024" fill="#333" overflow="hidden" xmlns:v="https://vecta.io/nano"><path d="M128 128a64 64 0 0 0-64 64v704a64 64 0 0 0 64 64h768a64 64 0 0 0 64-64V192a64 64 0 0 0-64-64H128zm0-64h768a128 128 0 0 1 128 128v704a128 128 0 0 1-128 128H128A128 128 0 0 1 0 896V192A128 128 0 0 1 128 64z"/><path d="M256 544a32 32 0 0 1 0 64H128a32 32 0 0 1 0-64h128zm320 0a32 32 0 0 1 0 64H448a32 32 0 0 1 0-64h128zm320 0a32 32 0 1 1 0 64H768a32 32 0 0 1 0-64h128zM256 704a32 32 0 0 1 0 64H128a32 32 0 0 1 0-64h128zm320 0a32 32 0 0 1 0 64H448a32 32 0 0 1 0-64h128zm320 0a32 32 0 1 1 0 64H768a32 32 0 1 1 0-64h128zm64-416a32 32 0 1 1 0 64H64a32 32 0 0 1 0-64h896zM288 32a32 32 0 0 1 64 0v128a32 32 0 0 1-64 0V32zm384 0a32 32 0 1 1 64 0v128a32 32 0 1 1-64 0V32z"/></svg>