<svg xmlns="http://www.w3.org/2000/svg" width="24" height="24" fill="#637381" xmlns:v="https://vecta.io/nano"><path d="M17.551 10.594c.059-.586-.401-1.094-.99-1.094-.511 0-.939.387-.99.896l-.301 3.01c-.059.586.401 1.094.99 1.094.511 0 .939-.387.99-.896l.301-3.01zm-4.801-.198c-.051-.509-.479-.896-.99-.896-.589 0-1.049.508-.99 1.094l.301 3.01c.051.509.479.896.99.896.589 0 1.049-.508.99-1.094l-.301-3.01zM16.66 19a3 3 0 1 0 6 0 3 3 0 1 0-6 0zm-10.5 0a3 3 0 1 0 6 0 3 3 0 1 0-6 0z"/><path opacity=".4" d="M3.41 2a1.25 1.25 0 1 0 0 2.5h.842a.5.5 0 0 1 .49.398L6.105 11l1.553 5.403c.442-.256.955-.403 1.503-.403a3 3 0 0 1 2.81 1.946l2.635.054 2.241-.04A3 3 0 0 1 19.66 16c.554 0 1.073.15 1.519.412.353-.89.828-2.379 1.231-4.662l.576-3.76C23.12 6.894 22.265 6 21.16 6H7.66l-.621-2.485A2 2 0 0 0 5.099 2H3.41z"/></svg>