<svg xmlns="http://www.w3.org/2000/svg" fill="#000000" width="800" height="800" viewBox="0 0 512 512" xmlns:v="https://vecta.io/nano"><path d="M464.433 147.54a9.899 9.899 0 0 0-17.56 9.141 214.264 214.264 0 0 1-38.769 251.42c-83.856 83.848-220.315 83.874-304.207-.009a9.896 9.896 0 0 0-16.893 7.005v56.9a9.897 9.897 0 0 0 19.793 0v-34.55A234.951 234.951 0 0 0 464.433 147.54zm-360.536-43.638c83.883-83.874 220.342-83.865 304.207-.009a9.891 9.891 0 0 0 16.893-6.996v-56.9a9.897 9.897 0 0 0-19.793 0v34.55C313.023-1.356 176.055 3.751 89.904 89.901a233.956 233.956 0 0 0-42.337 274.553 9.899 9.899 0 0 0 17.56-9.141 214.249 214.249 0 0 1 38.769-251.411zm22.504 150.654v109.44a27.08 27.08 0 0 0 27 27h205.198a27.077 27.077 0 0 0 27-27v-109.44a27.078 27.078 0 0 0-27-27H153.401a27.081 27.081 0 0 0-27 27zM328 288.13a21.147 21.147 0 1 1-21.147 21.146A21.167 21.167 0 0 1 328 288.13zm-72 0a21.147 21.147 0 1 1-21.147 21.146A21.167 21.167 0 0 1 256 288.13zm-72 0a21.147 21.147 0 1 1-21.147 21.146A21.167 21.167 0 0 1 184 288.13zm159.653-80.374v-36.002a87.654 87.654 0 0 0-175.307 0v36.002h19.793v-36.002a67.86 67.86 0 0 1 135.721 0v36.002z"/></svg>