<svg xmlns="http://www.w3.org/2000/svg" viewBox="0 0 1024 1024" fill="currentColor" overflow="hidden" xmlns:v="https://vecta.io/nano"><path d="M512.3 1001.9c-19 0-34.4-15.4-34.4-34.4V678.6c0-19 15.4-34.4 34.4-34.4s34.4 15.4 34.4 34.4v288.9c-.1 19-15.4 34.4-34.4 34.4zm-202.4-15.5c-5.2 0-10.5-1.2-15.4-3.7-17-8.6-23.8-29.2-15.2-46.2l130-258c8.6-17 29.3-23.7 46.2-15.2 17 8.6 23.8 29.2 15.2 46.2l-130 258c-6.1 12-18.2 18.9-30.8 18.9zm404.7 0c-12.6 0-24.7-6.9-30.7-18.9l-130-258c-8.5-16.9-1.7-37.6 15.2-46.2 16.9-8.5 37.6-1.7 46.2 15.2l130 258c8.5 16.9 1.7 37.6-15.2 46.2-5 2.6-10.3 3.7-15.5 3.7z" fill="#2d416c"/><path d="M66.5 31.8h893v709.1h-893z" fill="#83c6ef"/><path d="M513 31.8h446.5v709.1H513z" fill="#429bcf"/><path d="M86.5 83.9h852.9v604.9H86.5z" fill="#fff"/><path d="M246 363.2h81.5v183.3H246z" fill="#429bcf"/><path d="M396.9 312.3h81.5v234.2h-81.5z" fill="#ffd858"/><path d="M547.7 213.5h81.5v333h-81.5z" fill="#429bcf"/><path d="M698.5 167.3H780v379.2h-81.5z" fill="#c11b16"/></svg>