<svg xmlns="http://www.w3.org/2000/svg" width="24" height="24" fill="#637381" xmlns:v="https://vecta.io/nano"><path opacity=".4" d="M2.327 4.287c.096-.824.595-1.504 1.405-1.683C4.995 2.325 7.443 2 12 2s7.005.325 8.268.604c.81.179 1.309.859 1.405 1.683A50.52 50.52 0 0 1 22 10c0 4.514-2.383 8.738-6.396 10.804C14.263 21.494 12.954 22 12 22s-2.263-.506-3.604-1.196C4.382 18.738 2 14.514 2 10c0-2.416.182-4.468.327-5.713z"/><path fill-rule="evenodd" d="M9.121 7.754A2.88 2.88 0 0 1 12 5a2.88 2.88 0 0 1 2.879 2.754l.06 1.343.069.006a1.5 1.5 0 0 1 1.43 1.431L16.5 12.5l-.062 1.967a1.5 1.5 0 0 1-1.43 1.431C14.36 15.953 13.4 16 12 16s-2.36-.047-3.008-.103a1.5 1.5 0 0 1-1.43-1.431L7.5 12.5l.046-1.84a1.6 1.6 0 0 1 1.516-1.564l.06-1.342zm3.76.089l.052 1.165L12 9l-.933.008.052-1.165A.88.88 0 0 1 12 7a.88.88 0 0 1 .881.843zM13 12a1 1 0 0 1-.597.915l.07.626c.017.155-.008.324-.148.392A.73.73 0 0 1 12 14a.73.73 0 0 1-.326-.066c-.14-.069-.165-.238-.148-.392l.07-.626A1 1 0 0 1 12 11a1 1 0 0 1 1 1z"/></svg>