<svg class="svg-icon" style="width: 1em; height: 1em;vertical-align: middle;fill: currentColor;overflow: hidden;" viewBox="0 0 1024 1024" version="1.1" xmlns="http://www.w3.org/2000/svg"><path d="M964.48 459.632l-94.784-82.416V84.608c0-12.368-8.24-20.608-20.608-20.608h-661.44c-12.368 0-20.624 8.24-20.624 20.608v298.784l-94.784 76.24c-6.176 4.128-8.24 10.304-8.24 16.48V950.08c0 12.368 8.24 20.608 20.608 20.608h865.44c12.384 0 20.624-8.24 20.624-20.608V476.128c0-6.192-2.08-12.368-6.192-16.48z m-96.848-26.784l49.456 41.216-49.44 32.96v-74.176zM208.24 105.216h618.192v430.656l-212.256 146.304H420.48l-212.24-146.304V105.216zM167.04 436.96v72.112l-47.392-32.96 47.392-39.152z m-61.808 78.304l274.064 187.52-274.08 206.048V515.28zM146.432 929.44L420.48 723.392h191.648l276.112 206.064H146.432z m783.024-20.608L655.392 702.784l274.064-187.52v393.584zM744 414.288H290.672v41.232H744v-41.216z m0-103.008H290.672v41.2H744v-41.2z m-329.696-103.04h-123.632v41.216h123.632v-41.216z" fill="#000000" /></svg>