<svg xmlns="http://www.w3.org/2000/svg" viewBox="0 0 1024 1024" fill="currentColor" overflow="hidden" xmlns:v="https://vecta.io/nano"><path d="M819.2 391.68h-12.8V271.36C793.6 120.32 668.16 0 512 0S230.4 120.32 217.6 271.36v120.32h-12.8c-56.32 0-104.96 46.08-104.96 104.96V921.6c0 56.32 46.08 102.4 104.96 102.4h614.4c56.32 0 104.96-46.08 104.96-104.96V494.08c0-56.32-46.08-102.4-104.96-102.4zM268.8 271.36C279.04 148.48 384 51.2 512 51.2s232.96 97.28 243.2 220.16v120.32H266.24l2.56-120.32zm604.16 647.68c0 28.16-23.04 53.76-53.76 53.76H204.8c-28.16 0-53.76-23.04-53.76-53.76V494.08c0-28.16 23.04-53.76 53.76-53.76h12.8 51.2 488.96 51.2 10.24c28.16 0 53.76 23.04 53.76 53.76v424.96zM509.44 565.76c-46.08 0-84.48 38.4-84.48 84.48 0 28.16 15.36 56.32 38.4 69.12v74.24c0 25.6 20.48 46.08 46.08 46.08s46.08-20.48 46.08-46.08v-71.68c23.04-15.36 38.4-40.96 38.4-69.12 0-48.64-35.84-87.04-84.48-87.04zM532.48 704v25.6h2.56-2.56v64c0 10.24-10.24 20.48-20.48 20.48s-20.48-10.24-20.48-20.48v-61.44h0v-25.6c-23.04-7.68-38.4-30.72-38.4-53.76 0-33.28 25.6-58.88 58.88-58.88s58.88 25.6 58.88 58.88c-2.56 23.04-17.92 43.52-38.4 51.2z"/></svg>