<svg xmlns="http://www.w3.org/2000/svg" width="800" height="800" viewBox="0 -0.5 25 25" fill="none" xmlns:v="https://vecta.io/nano"><path d="M7.044 9.532a.75.75 0 1 0-1.058-1.063l1.058 1.063zm-4.073 1.937a.75.75 0 0 0 1.058 1.063l-1.058-1.063zm1.058 0a.75.75 0 0 0-1.058 1.063l1.058-1.063zm1.957 4.063a.75.75 0 1 0 1.058-1.063l-1.058 1.063zM3.5 11.25a.75.75 0 1 0 0 1.5v-1.5zm14 1.5a.75.75 0 1 0 0-1.5v1.5zM5.986 8.468l-3.015 3 1.058 1.063 3.015-3-1.058-1.063zm-3.015 4.063l3.015 3 1.058-1.063-3.015-3-1.058 1.063zm.529.218h14v-1.5h-14v1.5z" fill="#000"/><path d="M9.5 15a4 4 0 0 0 4 4h4a4 4 0 0 0 4-4V9a4 4 0 0 0-4-4h-4a4 4 0 0 0-4 4" stroke="#000" stroke-width="1.5" stroke-linecap="round" stroke-linejoin="round"/></svg>