<svg xmlns="http://www.w3.org/2000/svg" width="24" height="24" fill="#637381" xmlns:v="https://vecta.io/nano"><path opacity=".4" d="M2.281 19.658c.089.859.652 1.538 1.496 1.718C5.11 21.659 7.622 22 12 22s6.89-.341 8.223-.625c.844-.18 1.407-.859 1.496-1.718.131-1.273.281-3.611.281-7.657l-.281-7.657c-.089-.859-.652-1.538-1.496-1.718C18.891 2.341 16.378 2 12 2s-6.89.341-8.223.625c-.844.18-1.407.859-1.496 1.718C2.15 5.616 2 7.953 2 12l.281 7.657z"/><path d="M13.938 13.856c1.325-.698 2.228-2.088 2.228-3.689A4.17 4.17 0 0 0 12 6a4.17 4.17 0 0 0-4.167 4.167c0 1.601.903 2.992 2.228 3.689-1.774.676-3.129 2.253-3.549 4.197-.058.269.09.545.361.594.972.176 2.583.353 5.127.353s4.155-.177 5.127-.353c.27-.049.418-.324.36-.592-.419-1.945-1.774-3.523-3.549-4.199z"/></svg>