<svg xmlns="http://www.w3.org/2000/svg" height="24" width="24" xmlns:v="https://vecta.io/nano"><linearGradient id="A" x1="14.104%" x2="85.896%" y1="0%" y2="100%"><stop offset="0" stop-color="#ffe16a"/><stop offset="1" stop-color="#b78103"/></linearGradient><g fill-rule="evenodd" transform="translate(0 1)"><path d="M15.111 8.3h4.359a1.36 1.36 0 0 1 1.004.441l3.511 3.825v4.843c0 .362-.144.708-.399.964s-.602.399-.964.399h-1.073c0-1.317-1.068-2.385-2.385-2.385s-2.385 1.068-2.385 2.385h-1.667z" fill="url(#A)"/><circle cx="19.163" cy="18.772" fill="#7a4f01" r="2.385"/><path d="M15.111 12.567v6.206H7.852c0-1.317-1.068-2.385-2.385-2.385s-2.385 1.068-2.385 2.385H1.379c-.362 0-.708-.144-.964-.399s-.399-.602-.399-.964V6.03c0-.362.144-.708.399-.964s.602-.399.964-.399h1.479c.085 2.403 2.058 4.307 4.462 4.307s4.377-1.904 4.462-4.307h1.966c.753 0 1.363.61 1.363 1.363z" fill="#b78103"/><path d="M11.785 4.517l-.003.15c-.085 2.403-2.058 4.307-4.462 4.307S2.942 7.07 2.857 4.667l-.003-.15c0-2.466 1.999-4.465 4.465-4.465s4.465 1.999 4.465 4.465z" fill="#74caff" stroke="#74caff"/><path d="M5.467 16.388c1.317 0 2.385 1.068 2.385 2.385s-1.068 2.385-2.385 2.385-2.385-1.068-2.385-2.385 1.068-2.385 2.385-2.385z" fill="#7a4f01"/><path d="M8.81 6.303a.39.39 0 0 1-.267-.105l-1.49-1.395a.39.39 0 0 1-.124-.285V1.621a.39.39 0 1 1 .781 0v2.727l1.367 1.28a.39.39 0 0 1-.267.676z" fill="#0c53b7"/></g></svg>