<svg xmlns="http://www.w3.org/2000/svg" xmlns:xlink="http://www.w3.org/1999/xlink" height="24" width="24" xmlns:v="https://vecta.io/nano"><defs><linearGradient id="A" x1="0%" x2="100%" y1="37.93%" y2="62.07%"><stop offset="0" stop-color="#ffa48d"/><stop offset="1" stop-color="#b72136"/></linearGradient><path id="B" d="M2.156.295h12a2 2 0 0 1 2 2v16h-16v-16a2 2 0 0 1 2-2z"/><mask id="C" fill="#fff"><use fill="#fff" fill-rule="evenodd" xlink:href="#B"/></mask></defs><g fill="none" fill-rule="evenodd"><path d="M24 9.585l-.703 8.935H.703L0 9.585l4-2.857h16z" fill="url(#A)"/><g transform="translate(3.844 .719)"><use fill="#d0f2ff" xlink:href="#B"/><path d="M3.213 3.02h4.743a.2.2 0 0 1 .2.2v1.006a.2.2 0 0 1-.2.2H3.213a.2.2 0 0 1-.2-.2V3.22a.2.2 0 0 1 .2-.2zm0 3.428h9.885a.2.2 0 0 1 .2.2v1.006a.2.2 0 0 1-.2.2H3.214a.2.2 0 0 1-.2-.2V6.649a.2.2 0 0 1 .2-.2zm0 3.428h9.885a.2.2 0 0 1 .2.2v1.006a.2.2 0 0 1-.2.2H3.214a.2.2 0 0 1-.2-.2v-1.006a.2.2 0 0 1 .2-.2z" fill="#74caff" mask="url(#C)"/></g><path d="M24 9.585v13.714l-12-1.115-12 1.115V9.585l9.6 6.857h4.8z" fill="#ffa48d"/><g fill="#ff4842"><path d="m24 9.585v13.714l-12-1.115v-5.742h2.4z"/><path d="M24 23.299H0l12-8.571z"/></g><path d="M24 23.299H12v-8.571z" fill="#b72136"/></g></svg>