<svg xmlns="http://www.w3.org/2000/svg" xmlns:xlink="http://www.w3.org/1999/xlink" height="24" width="24" xmlns:v="https://vecta.io/nano"><linearGradient id="A" x1="39.907%" x2="113.315%" y1="39.91%" y2="113.318%"><stop offset="0" stop-color="#a7f3ce"/><stop offset="1" stop-color="#61db99"/></linearGradient><linearGradient id="B" x1="0%" x2="100%" y1="0%" y2="100%"><stop offset="0" stop-color="#5be584"/><stop offset="1" stop-color="#00ab55"/></linearGradient><linearGradient id="C" x1="0%" x2="100%" y1="0%" y2="100%"><stop offset="0" stop-color="#74caff"/><stop offset="1" stop-color="#0c53b7"/></linearGradient><g fill-rule="evenodd"><use xlink:href="#E" fill="url(#A)" fill-rule="nonzero"/><use xlink:href="#E" fill="url(#B)"/><path d="M9.801.043a9.62 9.62 0 0 0-9.8 9.459c-.015.784.063 1.547.225 2.278.273 1.239.436 2.5.436 3.769v2.453a.68.68 0 0 0 .68.68h2.453c1.269 0 2.53.162 3.769.436.732.161 1.495.24 2.278.225a9.62 9.62 0 0 0 9.459-9.799c-.079-5.211-4.289-9.42-9.5-9.5z" fill="url(#C)"/><g fill="#0c53b7"><use xlink:href="#F"/><use xlink:href="#F" x="4.227"/><use xlink:href="#F" x="8.455"/></g><g fill="#fff" fill-rule="nonzero"><circle cx="5.109" cy="10.198" r="1.495"/><circle cx="9.336" cy="10.198" r="1.495"/><circle cx="13.564" cy="10.198" r="1.495"/></g></g><defs ><path id="E" d="M15.955 7.272c4.382-.067 7.959 3.382 8.044 7.764a7.96 7.96 0 0 1-.184 1.87c-.224 1.017-.358 2.052-.358 3.094v2.013a.56.56 0 0 1-.558.558h-2.013c-1.042 0-2.076.133-3.094.358-.601.132-1.227.197-1.87.184-4.382-.085-7.831-3.661-7.764-8.044.065-4.277 3.52-7.733 7.798-7.798z"/><path id="F" d="M6.197 9.175a1.49 1.49 0 0 0-1.088-.472c-.826 0-1.495.669-1.495 1.495a1.49 1.49 0 0 0 .472 1.088l3.225 3.225a1.49 1.49 0 0 0 1.088.472c.826 0 1.495-.669 1.495-1.495a1.49 1.49 0 0 0-.472-1.088z"/></defs></svg>