<svg xmlns="http://www.w3.org/2000/svg" xmlns:xlink="http://www.w3.org/1999/xlink" height="24" width="24" xmlns:v="https://vecta.io/nano"><linearGradient id="A" x1="0%" x2="100%" y1=".004%" y2="99.996%"><stop offset="0" stop-color="#5be584"/><stop offset="1" stop-color="#00ab55"/></linearGradient><linearGradient id="B"><stop offset="0" stop-color="#ffe16a"/><stop offset="1" stop-color="#b78103"/></linearGradient><linearGradient id="C" x1="0%" x2="100%" xlink:href="#B" y1="33.335%" y2="66.665%"/><linearGradient id="D" x1="46.26%" x2="53.74%" xlink:href="#B" y1="0%" y2="100%"/><g fill-rule="evenodd"><path d="M15.048 20.02a4.8 4.8 0 0 1 6.547-6.569 4.8 4.8 0 0 1-2.395 8.96 4.77 4.77 0 0 1-4.152-2.391z" fill="url(#A)"/><path d="M19.2 5.578v7.234a4.8 4.8 0 0 0-4.152 7.209L9.6 23.165V11.119l9.599-5.542z" fill="#ffe16a"/><path d="m9.6 11.119-3.343-1.93 9.6-5.542 3.342 1.93z" fill="#ffc107"/><path d="m15.857 3.647-9.6 5.542-2.446-1.412 9.598-5.542z" fill="url(#C)"/><path d="M9.6.035l3.809 2.2-9.598 5.542H3.81l-3.809-2.2z" fill="#ffe16a"/><path d="M9.6 11.119v12.046L0 17.622V5.577h.001l3.809 2.2v7.987l1.163-.48 1.267 1.44V9.199l.017-.01z" fill="#ffc107"/><path d="m6.257 9.189-.017.01v7.525l-1.267-1.44-1.163.48v-7.987h.001z" fill="url(#D)"/><path d="M1.242 17.719a.35.35 0 0 1-.35-.35v-1.296a.35.35 0 0 1 .7 0v1.296a.35.35 0 0 1-.35.35zm1.421.831a.35.35 0 0 1-.35-.35v-1.168a.35.35 0 1 1 .7 0V18.2a.35.35 0 0 1-.35.35zm1.421.82a.35.35 0 0 1-.35-.35v-1.028a.35.35 0 0 1 .7 0v1.028a.35.35 0 0 1-.35.35zm1.421.82a.35.35 0 0 1-.35-.35v-.889a.35.35 0 0 1 .7 0v.889a.35.35 0 0 1-.35.35zm1.421.84a.35.35 0 0 1-.35-.35v-.768a.35.35 0 0 1 .7 0v.768a.35.35 0 0 1-.35.35z" fill="#ffe16a"/><path d="M11.589 18.047a.35.35 0 0 1-.175-.653l1.595-.921a.35.35 0 0 1 .525.303.35.35 0 0 1-.175.303l-1.594.92a.35.35 0 0 1-.175.047z" fill="#b78103"/><path d="M18.11 19.32a.35.35 0 0 1-.266-.123l-1.16-1.359a.35.35 0 0 1 .202-.573.35.35 0 0 1 .331.119l.938 1.099 3.075-2.502a.35.35 0 0 1 .568.215.35.35 0 0 1-.126.328l-3.34 2.718a.35.35 0 0 1-.221.079z" fill="#005249" fill-rule="nonzero"/><path d="M12.543 11.332a.35.35 0 0 0-.563.075l-.845 1.572a.35.35 0 0 0 .308.516.36.36 0 0 0 .315-.184l.193-.347v3.009a.35.35 0 1 0 .7 0v-3.518l.284.308c.063.067.151.107.243.11s.182-.032.249-.095a.35.35 0 0 0 .013-.495z" fill="#b78103"/></g></svg>